name rise49.25peak52.1432fall72.8391.mot
datacolumns 19
datarows 23
range 19.63658900000000 19.67325500000000
endheader
time	ground_force1_vx	ground_force1_vy	ground_force1_vz	ground_force1_px	ground_force1_py	ground_force1_pz	ground_force2_vx	ground_force2_vy	ground_force2_vz	ground_force2_px	ground_force2_py	ground_force2_pz	ground_torque1_x	ground_torque1_y	ground_torque1_z	ground_torque2_x	ground_torque2_y	ground_torque2_z	
19.63658900000000	-41.68954900000000	768.13753499999996	50.06036700000000	0.12822500000000	0.00000000000000	0.11615200000000	-5.28267500000000	26.95188700000000	4.36910500000000	0.33286100000000	0.00000000000000	-0.06024900000000	0.00000000000000	21.98237000000000	0.00000000000000	0.00000000000000	2.39594700000000	0.00000000000000	
19.63826100000000	-42.09529800000000	766.16544299999998	49.82368400000000	0.12756300000000	0.00000000000000	0.11606600000000	-6.16222300000000	33.13199500000000	5.16593700000000	0.33906400000000	0.00000000000000	-0.06108000000000	0.00000000000000	21.91652200000000	0.00000000000000	0.00000000000000	2.87359600000000	0.00000000000000	
19.63991900000000	-42.51683100000000	764.13900799999999	49.57489300000000	0.12691000000000	0.00000000000000	0.11597500000000	-6.97986500000000	39.55817900000000	5.93469700000000	0.34471100000000	0.00000000000000	-0.06182600000000	0.00000000000000	21.85214500000000	0.00000000000000	0.00000000000000	3.34590500000000	0.00000000000000	
19.64158700000000	-42.95445500000000	762.05744200000004	49.31402900000000	0.12626400000000	0.00000000000000	0.11588000000000	-7.70468700000000	46.10970000000000	6.65135900000000	0.34987200000000	0.00000000000000	-0.06250100000000	0.00000000000000	21.78932700000000	0.00000000000000	0.00000000000000	3.79861100000000	0.00000000000000	
19.64325700000000	-43.40844100000000	759.91984000000002	49.04113800000000	0.12562600000000	0.00000000000000	0.11578100000000	-8.31115100000000	52.67802600000000	7.29571100000000	0.35460400000000	0.00000000000000	-0.06311600000000	0.00000000000000	21.72814600000000	0.00000000000000	0.00000000000000	4.21925900000000	0.00000000000000	
19.64492100000000	-43.87902100000000	757.72517400000004	48.75627600000000	0.12499400000000	0.00000000000000	0.11567800000000	-8.78045200000000	59.17385000000000	7.85247900000000	0.35895600000000	0.00000000000000	-0.06368100000000	0.00000000000000	21.66867400000000	0.00000000000000	0.00000000000000	4.59795000000000	0.00000000000000	
19.64659800000000	-44.36638600000000	755.47229300000004	48.45950500000000	0.12437000000000	0.00000000000000	0.11557100000000	-9.10113200000000	65.53152700000000	8.31187700000000	0.36296600000000	0.00000000000000	-0.06420200000000	0.00000000000000	21.61097400000000	0.00000000000000	0.00000000000000	4.92778600000000	0.00000000000000	
19.64825700000000	-44.87068000000000	753.15991899999995	48.15090000000000	0.12375200000000	0.00000000000000	0.11546000000000	-9.26900800000000	71.71086900000000	8.66963900000000	0.36666900000000	0.00000000000000	-0.06468600000000	0.00000000000000	21.55509900000000	0.00000000000000	0.00000000000000	5.20499400000000	0.00000000000000	
19.64992600000000	-45.39199700000000	750.78664400000002	47.83054000000000	0.12313900000000	0.00000000000000	0.11534400000000	-9.28652300000000	77.69655500000000	8.92658300000000	0.37009400000000	0.00000000000000	-0.06513800000000	0.00000000000000	21.50109400000000	0.00000000000000	0.00000000000000	5.42877600000000	0.00000000000000	
19.65159100000000	-45.93038000000000	748.35093199999994	47.49851300000000	0.12253300000000	0.00000000000000	0.11522500000000	-9.16165900000000	83.49558300000000	9.08783500000000	0.37326700000000	0.00000000000000	-0.06556200000000	0.00000000000000	21.44899300000000	0.00000000000000	0.00000000000000	5.60093300000000	0.00000000000000	
19.65325900000000	-46.48581400000000	745.85111800000004	47.15491300000000	0.12193100000000	0.00000000000000	0.11510200000000	-8.90657900000000	89.13333000000000	9.16182800000000	0.37620700000000	0.00000000000000	-0.06596100000000	0.00000000000000	21.39882000000000	0.00000000000000	0.00000000000000	5.72534100000000	0.00000000000000	
19.65492200000000	-47.05822400000000	743.28540699999996	46.79984100000000	0.12133400000000	0.00000000000000	0.11497500000000	-8.53617000000000	94.64876800000000	9.15920000000000	0.37893600000000	0.00000000000000	-0.06634000000000	0.00000000000000	21.35059000000000	0.00000000000000	0.00000000000000	5.80733500000000	0.00000000000000	
19.65659400000000	-47.64747200000000	740.65187700000001	46.43340300000000	0.12074100000000	0.00000000000000	0.11484400000000	-8.06660300000000	100.08940400000000	9.09170400000000	0.38146900000000	0.00000000000000	-0.06669900000000	0.00000000000000	21.30430300000000	0.00000000000000	0.00000000000000	5.85308700000000	0.00000000000000	
19.65825800000000	-48.25335300000000	737.94848000000002	46.05571200000000	0.12015100000000	0.00000000000000	0.11470900000000	-7.51404600000000	105.50637999999999	8.97121100000000	0.38382200000000	0.00000000000000	-0.06704200000000	0.00000000000000	21.25995200000000	0.00000000000000	0.00000000000000	5.86901300000000	0.00000000000000	
19.65992000000000	-48.87559100000000	735.17304300000001	45.66688300000000	0.11956400000000	0.00000000000000	0.11457100000000	-6.89358900000000	110.95011300000000	8.80886700000000	0.38600800000000	0.00000000000000	-0.06737000000000	0.00000000000000	21.21751400000000	0.00000000000000	0.00000000000000	5.86126700000000	0.00000000000000	
19.66159000000000	-49.51383900000000	732.32327799999996	45.26704000000000	0.11898000000000	0.00000000000000	0.11442900000000	-6.21843900000000	116.46671100000000	8.61445900000000	0.38803900000000	0.00000000000000	-0.06768400000000	0.00000000000000	21.17695700000000	0.00000000000000	0.00000000000000	5.83533700000000	0.00000000000000	
19.66325700000000	-50.16767100000000	729.39677500000005	44.85631000000000	0.11839800000000	0.00000000000000	0.11428300000000	-5.49939300000000	122.09531699999999	8.39597800000000	0.38992600000000	0.00000000000000	-0.06798600000000	0.00000000000000	21.13823300000000	0.00000000000000	0.00000000000000	5.79576400000000	0.00000000000000	
19.66492100000000	-50.83658300000000	726.39101900000003	44.43482300000000	0.11781800000000	0.00000000000000	0.11413400000000	-4.74458900000000	127.86641400000001	8.15940500000000	0.39167900000000	0.00000000000000	-0.06827800000000	0.00000000000000	21.10128300000000	0.00000000000000	0.00000000000000	5.74598500000000	0.00000000000000	
19.66658800000000	-51.51999100000000	723.30338600000005	44.00271800000000	0.11723800000000	0.00000000000000	0.11398200000000	-3.95949500000000	133.80104499999999	7.90867300000000	0.39330700000000	0.00000000000000	-0.06855900000000	0.00000000000000	21.06603500000000	0.00000000000000	0.00000000000000	5.68828300000000	0.00000000000000	
19.66825400000000	-52.21722400000000	720.13115400000004	43.56013500000000	0.11665900000000	0.00000000000000	0.11382700000000	-3.14710500000000	139.91085000000001	7.64579500000000	0.39481900000000	0.00000000000000	-0.06883200000000	0.00000000000000	21.03240100000000	0.00000000000000	0.00000000000000	5.62383600000000	0.00000000000000	
19.66992800000000	-52.92752600000000	716.87150999999994	43.10722100000000	0.11608000000000	0.00000000000000	0.11366800000000	-2.30827200000000	146.19875400000001	7.37110300000000	0.39622100000000	0.00000000000000	-0.06909600000000	0.00000000000000	21.00028100000000	0.00000000000000	0.00000000000000	5.55284400000000	0.00000000000000	
19.67159000000000	-53.65005300000000	713.52155600000003	42.64412800000000	0.11550100000000	0.00000000000000	0.11350700000000	-1.44214800000000	152.66014899999999	7.08356900000000	0.39752100000000	0.00000000000000	-0.06935200000000	0.00000000000000	20.96956000000000	0.00000000000000	0.00000000000000	5.47470300000000	0.00000000000000	
19.67325500000000	-54.38387400000000	710.07831599999997	42.17101200000000	0.11492100000000	0.00000000000000	0.11334300000000	-0.54666800000000	159.28438100000000	6.78117000000000	0.39872600000000	0.00000000000000	-0.06960200000000	0.00000000000000	20.94011000000000	0.00000000000000	0.00000000000000	5.38820600000000	0.00000000000000	
